<?xml version="1.0" standalone="no"?>
<!DOCTYPE svg PUBLIC "-//W3C//DTD SVG 20010904//EN"
 "http://www.w3.org/TR/2001/REC-SVG-20010904/DTD/svg10.dtd">
<svg version="1.0" xmlns="http://www.w3.org/2000/svg"
 width="200.000000pt" height="200.000000pt" viewBox="0 0 200.000000 200.000000"
 preserveAspectRatio="xMidYMid meet">
<metadata>
Created by potrace 1.11, written by Peter Selinger 2001-2013
</metadata>
<g transform="translate(0.000000,200.000000) scale(0.100000,-0.100000)"
fill="#000000" stroke="none">
<path d="M145 1000 l0 -870 166 0 166 0 -1 506 c-1 278 2 508 5 510 8 5 12 0
176 -206 174 -220 217 -253 330 -256 72 -3 130 14 179 51 18 14 105 115 193
225 89 111 161 195 162 188 0 -7 1 -238 2 -513 l2 -500 165 -3 165 -2 0 870 1
870 -113 0 -112 0 -258 -322 c-142 -178 -260 -325 -263 -328 -3 -3 -28 -33
-55 -67 -28 -35 -52 -63 -56 -63 -3 0 -106 127 -230 281 -123 155 -229 286
-234 293 -6 6 -46 55 -89 109 l-78 97 -112 0 -112 0 1 -870z"/>
</g>
</svg>
