
<svg width="284px" height="139px" viewBox="0 0 284 139" version="1.1" xmlns="http://www.w3.org/2000/svg" xmlns:xlink="http://www.w3.org/1999/xlink">
    <defs>
        <path d="M40.3636364,76.8002949 C31.1229033,72.4105014 24.3669181,63.6392782 22.7803061,53.1712505 C19.4252205,52.7914058 16.8181818,49.9436626 16.8181818,46.487013 L16.8181818,39.7201299 C16.8181818,36.3867704 19.2425638,33.6196557 22.4242424,33.0858712 L22.4242424,31.3939394 C22.4242424,14.0555454 36.4797879,3.1850113e-15 53.8181818,0 C71.1565758,-3.1850113e-15 85.2121212,14.0555454 85.2121212,31.3939394 L85.2121212,33.0858712 C88.3937998,33.6196557 90.8181818,36.3867704 90.8181818,39.7201299 L90.8181818,46.487013 C90.8181818,49.9436626 88.2111431,52.7914058 84.8560576,53.1712505 C83.2694455,63.6392782 76.5134603,72.4105014 67.2727273,76.8002949 L67.2727273,86.7736315 C89.406315,87.6674371 107.075758,105.893473 107.075758,128.246429 L0,128.246429 C-2.76052085e-15,105.705065 17.9685613,87.3604842 40.3636364,86.754733 L40.3636364,76.8002949 Z" id="path-1"></path>
        <path d="M72.0932621,0.540422592 C92.0745889,3.40585862 107.432507,20.5928377 107.432507,41.3668506 L0.356749311,41.3668506 C0.356749311,20.4066425 15.9912036,3.09805685 36.2343717,0.466834068 C36.2295534,0.571175119 36.2271281,0.675881568 36.2271281,0.780933698 C36.2271281,6.82563095 44.2569859,11.7258263 54.1623175,11.7258263 C64.0676491,11.7258263 72.0975069,6.82563095 72.0975069,0.780933698 C72.0975069,0.70055803 72.0960871,0.620384718 72.0932621,0.540422592 Z" id="path-3"></path>
        <rect id="path-5" x="0" y="0" width="148" height="149"></rect>
        <path d="M104.093683,39.3406568 C105.077975,39.8667415 105.857333,45.1405747 105.895048,47.1572526 C105.918638,48.4016983 105.939761,53.1472411 104.554336,52.7370224 C104.132522,52.6121251 103.488724,50.0997858 103.397155,48.6293942 C103.305586,47.1590026 102.426336,42.1563589 101.077319,39.8546935 C100.769087,39.3287291 99.8864524,38.4052251 100.267784,37.9603078 C100.74084,37.4086103 101.200239,37.7287103 101.777746,37.9496057 C102.402434,38.1887788 103.983179,39.2817353 104.093683,39.3406568 Z M104.544641,37.7590412 C104.126725,38.2710766 101.272852,36.8337009 100.082725,36.2091138 C90.0865095,30.9622297 88.146138,29.2937635 72.3970315,29.5114962 C56.6479249,29.729229 45.8580985,36.7391548 45.2511778,37.4561738 C44.8289233,37.9550271 44.2898452,39.2870013 43.8465597,42.9974303 C43.4032743,46.7078593 43.9691192,53.3621093 42.3644451,53.3540361 C40.9982515,53.3471626 40.7010255,40.696708 41.2907741,35.6782588 C41.3813194,34.9077654 41.7302874,33.5294677 41.4776914,32.8363434 C41.2569229,32.2309608 40.1769968,32.2321941 40.3493802,31.2235168 C40.5453123,30.0752984 41.7639546,30.6456196 42.294719,30.0966172 C43.2999518,29.0565783 41.7492367,28.8104434 41.4920414,27.9006077 C41.1097439,26.5481872 42.2145065,26.1993346 43.2098046,25.7722544 C44.3112557,25.3000701 44.1681241,25.7148171 45.0620527,24.7898291 C43.8680628,23.9583971 43.4360924,22.8256833 45.0710674,22.2180102 C45.7653845,21.9598945 47.5718231,22.3015234 48.1158336,21.9137332 C48.2576774,21.8126012 48.3137894,21.2329421 48.401177,21.1143674 C49.2699012,19.9337304 49.0555717,19.0790415 48.9674483,17.7535779 C48.8949626,16.6689634 48.9047132,15.673324 50.2716384,15.5649682 C51.1837805,15.4927311 51.9255628,16.2006552 52.7427744,16.4090858 C53.6493972,16.6404209 53.3088617,16.8092092 54.0191845,16.3447771 C55.2661588,15.5288497 54.4174877,13.9391037 55.4063468,12.9906827 C56.7633375,11.6891806 57.6528508,13.5969462 58.7423435,13.740892 C61.1075105,14.0539784 60.3484347,11.771989 61.7486592,10.9357999 C63.4222687,9.93716532 63.5841656,12.1335272 64.6295047,12.2117548 C65.5353916,12.2792348 67.1663192,10.6186612 67.9559347,10.3092748 C70.2988409,9.39080576 71.4597155,11.9753102 73.6900297,11.6456621 C75.3084471,11.4063986 75.7453849,11.2110059 77.2059528,12.0857802 C78.6236548,12.9348311 78.9605108,12.3278628 80.565866,12.3157058 C81.7000644,12.3076011 82.3947495,13.2079227 83.3435023,13.301831 C83.8166829,13.3488733 84.2696263,12.8805651 84.777394,12.9099885 C86.5908236,13.0144681 86.7054393,15.2421915 88.146138,15.8555026 C89.4624704,16.4159572 91.0100579,15.6285722 92.3164558,15.4828646 C95.5039856,15.127493 93.3211366,17.9558419 93.4110998,19.6439009 C94.6623055,19.9212211 95.9322766,18.8117641 97.1777791,19.0159662 C99.1391237,19.3376858 98.3988131,21.2687083 97.9442139,22.5705628 C99.3032283,22.5473059 102.850795,21.1141912 103.731293,22.9470769 C104.185341,23.8921503 103.127491,25.1538339 103.144785,26.1145881 C103.169069,27.4670086 104.215144,28.5859797 104.5853,29.8659868 C105.084789,31.5938644 105.796629,36.2250949 104.544641,37.7590412 Z" id="path-7"></path>
        <filter x="-5.6%" y="-19.6%" width="111.3%" height="142.1%" filterUnits="objectBoundingBox" id="filter-9">
            <feOffset dx="0" dy="2" in="SourceAlpha" result="shadowOffsetOuter1"></feOffset>
            <feColorMatrix values="0 0 0 0 0   0 0 0 0 0   0 0 0 0 0  0 0 0 0.1 0" type="matrix" in="shadowOffsetOuter1" result="shadowMatrixOuter1"></feColorMatrix>
            <feMerge>
                <feMergeNode in="shadowMatrixOuter1"></feMergeNode>
                <feMergeNode in="SourceGraphic"></feMergeNode>
            </feMerge>
        </filter>
    </defs>
    <g id="Page-1" stroke="none" stroke-width="1" fill="none" fill-rule="evenodd">
        <g id="Experiences-desktop" transform="translate(-473.000000, -261.000000)">
            <g id="Listen-Leon" transform="translate(456.000000, 160.000000)">
                <g id="Group" transform="translate(0.000000, 91.000000)">
                    <path d="M169.221719,20 L270,20 C274.970563,20 279,24.0294373 279,29 L279,64 C279,68.9705627 274.970563,73 270,73 L169.221719,73 C164.251156,73 160.221719,68.9705627 160.221719,64 L160.221719,49 L154.690333,44.2396132 C153.015905,42.7985772 152.826703,40.2729943 154.267739,38.5985659 C154.454679,38.381349 154.664421,38.184851 154.893353,38.0124566 L160.221719,34 L160.221719,29 C160.221719,24.0294373 164.251156,20 169.221719,20 Z" id="Rectangle" fill="#FFFFFF" fill-rule="nonzero"></path>
                    <path d="M168.970202,86 L292,86 C296.970563,86 301,90.0294373 301,95 L301,124 C301,128.970563 296.970563,133 292,133 L168.970202,133 C163.999639,133 159.970202,128.970563 159.970202,124 L159.970202,115 L154.438816,110.239613 C152.764388,108.798577 152.575186,106.272994 154.016222,104.598566 C154.203162,104.381349 154.412904,104.184851 154.641836,104.012457 L159.970202,100 L159.970202,95 C159.970202,90.0294373 163.999639,86 168.970202,86 Z" id="Rectangle" fill="#FFFFFF" fill-rule="nonzero"></path>
                    <text id="Or-call-me-(+33)-6-1" font-family="Montserrat-Medium, Montserrat" font-size="12" font-weight="400" letter-spacing="0.772414148" fill="#1A2F46">
                        <tspan x="196.515929" y="105">Or call me</tspan>
                        <tspan x="172.238066" y="120">(+33) 6 15 21 36 30</tspan>
                    </text>
                    <text id="Click-here-to-email" font-family="Montserrat-Medium, Montserrat" font-size="15" font-weight="400" letter-spacing="0.9655177" fill="#1A2F46">
                        <tspan x="166.704135" y="43">Click here to </tspan>
                        <tspan x="180.892929" y="62">email me</tspan>
                    </text>
                    <g id="Avataaar/Default">
                        <g id="Body" transform="translate(20.181818, 19.157143)">
                            <mask id="mask-2" fill="white">
                                <use xlink:href="#path-1"></use>
                            </mask>
                            <use fill="#D0C6AC" xlink:href="#path-1"></use>
                            <g id="Skin/ðŸ‘¶ðŸ¼-04-Light" mask="url(#mask-2)" fill="#EDB98A">
                                <g transform="translate(-20.181818, 0.000000)" id="Color">
                                    <rect x="0" y="0" width="148" height="130"></rect>
                                </g>
                            </g>
                            <path d="M85.2121212,48.4274892 L85.2121212,52.684632 C85.2121212,70.023026 71.1565758,84.0785714 53.8181818,84.0785714 C36.4797879,84.0785714 22.4242424,70.023026 22.4242424,52.684632 L22.4242424,48.4274892 C22.4242424,65.7658831 36.4797879,79.8214286 53.8181818,79.8214286 C71.1565758,79.8214286 85.2121212,65.7658831 85.2121212,48.4274892 Z" id="Neck-Shadow" fill-opacity="0.100000001" fill="#000000" mask="url(#mask-2)"></path>
                        </g>
                        <g id="ðŸ‘”-Clothes" transform="translate(17.378788, 104.832143)">
                            <g id="Shirt" transform="translate(3.006887, 2.268864)">
                                <mask id="mask-4" fill="white">
                                    <use xlink:href="#path-3"></use>
                                </mask>
                                <use id="Clothes" fill="#E6E6E6" xlink:href="#path-3"></use>
                                <g id="Color/Palette/Gray-01" mask="url(#mask-4)" fill="#E6E6E6">
                                    <g transform="translate(-16.461433, -14.508149)" id="ðŸ–Color">
                                        <rect x="0" y="0" width="142.10422" height="56.0504505"></rect>
                                    </g>
                                </g>
                                <g id="Shadowy" opacity="0.599999964" mask="url(#mask-4)" fill="#000000" fill-opacity="0.16">
                                    <g transform="translate(31.190083, -12.379578)" id="Hola-ðŸ‘‹ðŸ¼">
                                        <ellipse cx="21.8636364" cy="14.0106103" rx="21.3967288" ry="13.5408009"></ellipse>
                                    </g>
                                </g>
                            </g>
                            <g id="Blazer" transform="translate(0.203857, 0.135455)">
                                <path d="M75.0340389,0.861521699 C96.6342654,3.38914448 113.395317,21.7533969 113.395317,44.0324026 L74.6358469,44.0324026 C76.5640977,37.5456748 77.675792,29.9145025 77.675792,21.747711 C77.675792,14.1606551 76.7163273,7.03587355 75.0340389,0.861521699 Z M39.3264465,44.0324026 L0,44.0324026 C-2.7529547e-15,21.5528215 17.0642056,3.05879921 38.945839,0.797113463 C37.2526538,6.9863041 36.2865014,14.1342593 36.2865014,21.747711 C36.2865014,29.9145025 37.3981957,37.5456748 39.3264465,44.0324026 Z" id="Saco" fill="#3A4C5A"></path>
                                <path d="M84.479511,31.1448701 L88.9006282,28.0044576 C90.322513,26.994463 92.2320194,27.0109514 93.636251,28.0453494 L96.3860193,30.0709091 L84.479511,31.1448701 Z" id="Pocket-hanky" fill="#E6E6E6"></path>
                                <path d="M39.1213843,6.10476172e-14 C36.853478,10.3816234 37.7984389,25.0590909 41.9562672,44.0324026 L32.8846419,44.0324026 L24.9469697,24.7011039 L28.3488292,19.8682792 L24.9469697,16.6463961 L35.7195248,0.536980519 C36.86916,0.198273955 38.0031131,0.0192804486 39.1213843,6.10476172e-14 Z" id="Wing" fill="#2F4351"></path>
                                <path d="M85.6134642,6.10476172e-14 C83.3455579,10.3816234 84.2905188,25.0590909 88.4483471,44.0324026 L79.3767218,44.0324026 L71.4390496,24.7011039 L74.8409091,19.8682792 L71.4390496,16.6463961 L82.2116047,0.536980519 C83.3612399,0.198273955 84.495193,0.0192804486 85.6134642,6.10476172e-14 Z" id="Wing" fill="#2F4351" transform="translate(79.943698, 22.016201) scale(-1, 1) translate(-79.943698, -22.016201) "></path>
                            </g>
                        </g>
                        <g id="Face" transform="translate(42.606061, 43.635714)" fill="#000000">
                            <g id="Mouth/Default" transform="translate(1.121212, 27.671429)" fill-opacity="0.699999988">
                                <path d="M22.5925926,7.84090909 C22.5925926,11.8826293 26.1328595,15.1590909 30.5,15.1590909 C34.8671405,15.1590909 38.4074074,11.8826293 38.4074074,7.84090909" id="Mouth"></path>
                            </g>
                            <g id="Nose/Default" transform="translate(15.696970, 21.285714)" fill-opacity="0.16">
                                <path d="M8.85714286,4.33333333 C8.85714286,6.72656725 11.8312513,8.66666667 15.5,8.66666667 C19.1687487,8.66666667 22.1428571,6.72656725 22.1428571,4.33333333" id="Nose"></path>
                            </g>
                            <g id="Eyes/Default-ðŸ˜€" transform="translate(0.000000, 4.257143)" fill-opacity="0.599999964">
                                <ellipse id="Eye" cx="16.875" cy="11.5" rx="3.375" ry="3.13636364"></ellipse>
                                <ellipse id="Eye" cx="46.125" cy="11.5" rx="3.375" ry="3.13636364"></ellipse>
                            </g>
                            <g id="Eyebrow/Natural/Default-Natural" fill-opacity="0.599999964">
                                <path d="M14.6566488,3.36431565 C11.4152966,3.7937514 6.35378381,6.53093176 6.76577336,9.67896434 C6.77931239,9.78199818 6.94103703,9.81360376 7.01115453,9.7273086 C8.41518215,7.99538716 19.2348955,5.42281906 23.1703451,5.94014981 C23.5305229,5.98760943 23.7695977,5.6284747 23.524592,5.40558486 C21.4253073,3.49681599 17.5603176,2.97685345 14.6566488,3.36431565" id="Eyebrow" transform="translate(15.183316, 6.510904) rotate(5.000000) translate(-15.183316, -6.510904) "></path>
                                <path d="M47.8525172,3.36431565 C44.611165,3.7937514 39.5496522,6.53093176 39.9616417,9.67896434 C39.9751808,9.78199818 40.1369054,9.81360376 40.2070229,9.7273086 C41.6110505,7.99538716 52.4307639,5.42281906 56.3662134,5.94014981 C56.7263913,5.98760943 56.9654661,5.6284747 56.7204604,5.40558486 C54.6211757,3.49681599 50.756186,2.97685345 47.8525172,3.36431565" id="Eyebrow" transform="translate(48.379184, 6.510904) scale(-1, 1) rotate(5.000000) translate(-48.379184, -6.510904) "></path>
                            </g>
                        </g>
                        <g id="Top">
                            <mask id="mask-6" fill="white">
                                <use xlink:href="#path-5"></use>
                            </mask>
                            <g id="Mask"></g>
                            <g id="Top/Short-Hair/Dreads-01" mask="url(#mask-6)">
                                <g transform="translate(-0.560606, 0.000000)">
                                    <g id="Hair" transform="translate(0.560150, 0.000000)">
                                        <mask id="mask-8" fill="white">
                                            <use xlink:href="#path-7"></use>
                                        </mask>
                                        <use id="Dreads-With-Cut" fill="#2E3257" xlink:href="#path-7"></use>
                                        <g id="Color/Hair/Brown" mask="url(#mask-8)" fill="#724133">
                                            <rect id="Color" x="0" y="0" width="148" height="149"></rect>
                                        </g>
                                    </g>
                                    <g id="Top/_Resources/Prescription-01" transform="translate(34.729323, 45.232143)">
                                        <g id="Glasses" filter="url(#filter-9)" transform="translate(4.507042, 4.296296)" fill="#D6EAF2">
                                            <path d="M26.0558534,3.90703395 C27.3919828,3.91902778 28.023611,4.13079938 28.2512451,5.45907099 C28.4818843,6.80452778 28.2576309,8.3171821 27.9916822,9.64241049 C27.5858099,11.665966 26.9107959,13.6485278 25.3395197,15.1275278 C24.5118106,15.9064105 23.5022948,16.5272253 22.4285456,16.9511265 C21.8583334,17.1763241 21.2561925,17.3388673 20.6542393,17.4622068 C20.4782549,17.4981883 18.9759075,17.6954599 19.8973372,17.595213 C17.7470215,17.8291821 15.4141477,17.8198735 13.6182425,16.5152315 C11.6279468,15.0693488 10.2649596,12.781392 9.66563584,10.5023858 C9.31498168,9.16892284 8.57817598,5.97963889 9.92444753,4.91344136 C11.4666121,3.69186111 26.0558534,3.90703395 26.0558534,3.90703395 Z M12.517072,0.263416667 C9.45208802,0.364021605 7.40657415,0.877429012 5.89483591,3.79640432 C3.1243488,9.14583025 7.86634992,17.1684475 13.156213,19.3545463 C19.3404601,21.9106636 26.249117,19.0819105 29.5186336,13.9660957 C31.2501176,11.2574599 32.1253444,7.15503395 32.0689993,4.02983642 C31.9972532,0.0410833333 29.0744466,-0.0695462963 25.6388999,0.0181697531 L12.517072,0.263416667 Z" id="Frame-Stuff"></path>
                                            <path d="M44.8904515,3.90563765 C43.5543221,3.91781049 42.9226939,4.12940309 42.6950598,5.45767469 C42.4644206,6.80313148 42.688674,8.3157858 42.9544349,9.6410142 C43.3604951,11.6645698 44.035509,13.6471315 45.6067852,15.1261315 C46.4344943,15.9050142 47.4440101,16.525829 48.5177594,16.9499093 C49.0879715,17.1749278 49.6901125,17.337471 50.2920656,17.4608105 C50.4680501,17.496792 51.9702096,17.6942426 51.0489677,17.5938167 C53.1992834,17.8277858 55.5321572,17.8184772 57.3280624,16.5138352 C59.3183581,15.0679525 60.6813453,12.7801747 61.2806691,10.5011685 C61.6313232,9.16752654 62.3679411,5.9784216 61.0218574,4.91204506 C59.4796928,3.69046481 44.8904515,3.90563765 44.8904515,3.90563765 Z M58.4290451,0.26202037 C61.4942169,0.362625309 63.5397308,0.876211728 65.051469,3.79500802 C67.8217683,9.14443395 63.079955,17.1670512 57.790092,19.353329 C51.6058448,21.9092673 44.6971879,19.0805142 41.4274835,13.9648784 C39.6961873,11.2560636 38.8209605,7.15363765 38.8771178,4.02844012 C38.9490517,0.039687037 41.8718583,-0.0709425926 45.3074051,0.0169524691 L58.4290451,0.26202037 Z" id="Frame-Stuff"></path>
                                            <path d="M7.43490046,2.64582037 C5.5126839,2.74875247 3.31609198,2.77345617 1.51552576,3.5655858 C-0.391330017,4.40443765 -0.686009859,6.30411667 1.71786434,6.56583272 C2.80053468,6.68380185 3.88444094,6.48885741 4.95051457,6.3075179 C5.82360733,6.15893765 7.00956568,6.20709198 7.83463393,5.88898704 C9.37212468,5.29645617 9.27342724,2.54557346 7.43490046,2.64582037" id="Frame-Stuff"></path>
                                            <path d="M63.51249,2.64582037 C65.4347076,2.74875247 67.6313006,2.77345617 69.4318677,3.5655858 C71.3387245,4.40443765 71.6334045,6.30411667 69.229529,6.56583272 C68.1468581,6.68380185 67.0629513,6.48885741 65.9968772,6.3075179 C65.123784,6.15893765 63.937825,6.20709198 63.1127564,5.88898704 C61.5750883,5.29645617 61.6739623,2.54557346 63.51249,2.64582037" id="Frame-Stuff"></path>
                                            <path d="M41.1884114,3.76604383 C40.0919363,2.53085864 37.23449,1.81767346 35.4318233,1.81767346 C33.6289689,1.81767346 30.8552889,2.53085864 29.7590017,3.76604383 C29.2060687,4.38882778 29.187287,5.22213025 30.1455288,5.61255617 C31.3387296,6.09893272 32.4042149,5.21693889 33.3592638,4.75562407 C34.580825,4.16559938 36.4574914,4.23040185 37.5881492,4.75562407 C38.550523,5.20279691 39.6084956,6.09893272 40.8018842,5.61255617 C41.760126,5.22213025 41.7413443,4.38882778 41.1884114,3.76604383" id="Frame-Stuff"></path>
                                        </g>
                                    </g>
                                </g>
                            </g>
                        </g>
                    </g>
                </g>
            </g>
        </g>
    </g>
</svg>