
<svg width="114px" height="135px" viewBox="0 0 114 135" version="1.1" xmlns="http://www.w3.org/2000/svg" xmlns:xlink="http://www.w3.org/1999/xlink">
    <defs>
        <path d="M40.3636364,70.9720091 C34.2067539,66.419598 29.8748514,58.9118098 29.290598,50.4210222 L29.1884715,48.9478494 C29.0835065,48.9540161 28.9777245,48.9571429 28.8712121,48.9571429 C25.9298774,48.9571429 23.5454545,46.57272 23.5454545,43.6313853 L23.5454545,34.0614719 C23.5454545,31.4888858 25.369494,29.3423269 27.7948264,28.8445418 L27.5475621,25.2777587 C26.577774,11.3915178 38.3374729,0.134495249 53.8181818,0.134495249 C69.2988907,0.134495249 81.0585896,11.3915178 80.0888015,25.2777587 L79.8382306,28.8922401 C82.157834,29.4678193 83.8770934,31.5638683 83.8770934,34.0614719 L83.8770934,43.6313853 C83.8770934,46.57272 81.4926705,48.9571429 78.5513358,48.9571429 C78.5165841,48.9571429 78.4819101,48.95681 78.4473169,48.9561473 L78.3457657,50.4210222 C77.7615122,58.9118098 73.4296098,66.419598 67.2727273,70.9720091 L67.2727273,82.5164886 C89.406315,83.4102943 107.075758,101.63633 107.075758,123.989286 L0,123.989286 C-2.76052085e-15,101.447922 17.9685613,83.1033414 40.3636364,82.4975901 L40.3636364,70.9720091 Z" id="path-1"></path>
        <path d="M72.0932621,0.540422592 C92.0745889,3.40585862 107.432507,20.5928377 107.432507,41.3668506 L0.356749311,41.3668506 C0.356749311,20.4066425 15.9912036,3.09805685 36.2343717,0.466834068 C36.2295534,0.571175119 36.2271281,0.675881568 36.2271281,0.780933698 C36.2271281,6.82563095 44.2569859,11.7258263 54.1623175,11.7258263 C64.0676491,11.7258263 72.0975069,6.82563095 72.0975069,0.780933698 C72.0975069,0.70055803 72.0960871,0.620384718 72.0932621,0.540422592 Z" id="path-3"></path>
        <rect id="path-5" x="0" y="0" width="148" height="149"></rect>
        <path d="M54.5153685,25.1788052 C55.3569092,25.6319769 56.0232378,30.1748808 56.0554823,31.9120562 C56.0756516,32.9840274 56.0937107,37.0718596 54.909213,36.7184953 C54.5485748,36.6109082 53.9981465,34.4467677 53.9198575,33.1801657 C53.8415685,31.9135638 53.0898354,27.6042638 51.9364654,25.6215987 C51.6729366,25.1685306 50.9183099,24.3730201 51.2443373,23.9897663 C51.6487864,23.5145316 52.0415585,23.7902671 52.5353102,23.9805475 C53.0694006,24.1865723 54.4208909,25.1280499 54.5153685,25.1788052 Z M54.9009247,23.8163943 C54.5436182,24.2574639 52.1036405,23.019302 51.0861174,22.4812798 C42.5396466,17.96159 40.880686,16.5243657 27.4156626,16.7119216 C13.9506393,16.8994776 4.72565469,22.9378596 4.20675529,23.5555029 C3.84574016,23.9852174 3.38484416,25.1325861 3.00584813,28.3287665 C2.62685211,31.5249468 3.11063288,37.256948 1.73868366,37.2499937 C0.570628271,37.2440729 0.316508791,26.3469139 0.820726481,22.0239989 C0.898140121,21.3602924 1.1964975,20.1730205 0.980535338,19.5759601 C0.791784719,19.0544808 -0.131520392,19.0555432 0.0158623826,18.1866639 C0.183378557,17.1975834 1.22528197,17.6888606 1.67906992,17.2159475 C2.53851441,16.3200533 1.2126986,16.1080316 0.992804128,15.3242949 C0.665950973,14.1593138 1.61049053,13.8588106 2.46144124,13.4909218 C3.40314953,13.08418 3.28077622,13.441445 4.04505893,12.6446561 C3.02423267,11.9284568 2.65491062,10.952732 4.05276625,10.4292797 C4.64638694,10.2069376 6.19083889,10.5012183 6.65595187,10.1671741 C6.77722414,10.0800585 6.82519826,9.58073751 6.89991204,9.47859677 C7.64264573,8.46159069 7.45940034,7.72535782 7.38405738,6.58359737 C7.32208426,5.64930556 7.33042075,4.79165724 8.49910166,4.69831912 C9.27895631,4.63609371 9.91315839,5.24590276 10.6118503,5.42544584 C11.3869861,5.62471893 11.0958383,5.77011392 11.7031434,5.37005004 C12.7692698,4.66720641 12.043681,3.29779202 12.8891265,2.48081787 C14.0493136,1.35969805 14.8098213,3.00305604 15.7413056,3.12705155 C17.7634539,3.3967456 17.1144664,1.43102962 18.3116172,0.710732523 C19.7425042,-0.149495871 19.8809213,1.74246023 20.7746555,1.8098458 C21.5491622,1.86797344 22.9435574,0.437547783 23.6186554,0.171040891 C25.6217714,-0.620132472 26.614285,1.6061714 28.5211382,1.32221103 C29.9048375,1.11610832 30.2784064,0.94779617 31.5271491,1.70133075 C32.7392426,2.432707 33.0272446,1.90986177 34.3997762,1.89938968 C35.3694825,1.8924083 35.9634178,2.66794942 36.7745736,2.74884246 C37.1791291,2.78936486 37.5663824,2.38596206 38.0005088,2.41130753 C39.5509379,2.50130673 39.6489309,4.42027776 40.880686,4.9485867 C42.0061116,5.43136484 43.3292534,4.75310784 44.4461852,4.62759463 C47.1714295,4.32147595 45.3051578,6.75782853 45.3820737,8.21193019 C46.4518178,8.45081507 47.5376057,7.49512379 48.6024738,7.67102441 C50.2793658,7.94815515 49.646422,9.61154668 49.2577531,10.73297 C50.4196704,10.7129365 53.4527356,9.478445 54.2055359,11.057301 C54.5937331,11.8713916 53.689303,12.9582115 53.7040885,13.7858095 C53.724851,14.9507907 54.6192144,15.9146775 54.9356863,17.0172815 C55.3627345,18.505683 55.9713371,22.495046 54.9009247,23.8163943 Z" id="path-7"></path>
        <filter x="-6.3%" y="-19.6%" width="112.7%" height="142.1%" filterUnits="objectBoundingBox" id="filter-9">
            <feOffset dx="0" dy="2" in="SourceAlpha" result="shadowOffsetOuter1"></feOffset>
            <feColorMatrix values="0 0 0 0 0   0 0 0 0 0   0 0 0 0 0  0 0 0 0.1 0" type="matrix" in="shadowOffsetOuter1" result="shadowMatrixOuter1"></feColorMatrix>
            <feMerge>
                <feMergeNode in="shadowMatrixOuter1"></feMergeNode>
                <feMergeNode in="SourceGraphic"></feMergeNode>
            </feMerge>
        </filter>
    </defs>
    <g id="Page-1" stroke="none" stroke-width="1" fill="none" fill-rule="evenodd">
        <g id="Experiences-desktop" transform="translate(-411.000000, -237.000000)">
            <g id="Listen-Leon" transform="translate(394.000000, 160.000000)">
                <g id="Group" transform="translate(0.000000, 63.000000)">
                    <g id="Avatar">
                        <g id="Avataaar/Default">
                            <g id="Body" transform="translate(20.181818, 23.414286)">
                                <mask id="mask-2" fill="white">
                                    <use xlink:href="#path-1"></use>
                                </mask>
                                <use fill="#D0C6AC" xlink:href="#path-1"></use>
                                <g id="Skin/ðŸ‘¶ðŸ¼-04-Light" mask="url(#mask-2)" fill="#EDB98A">
                                    <g transform="translate(-20.181818, -4.257143)" id="Color">
                                        <rect x="0" y="0" width="148" height="130"></rect>
                                    </g>
                                </g>
                                <path d="M85.2121212,44.1703463 L85.2121212,48.4274892 C85.2121212,65.7658831 71.1565758,79.8214286 53.8181818,79.8214286 C36.4797879,79.8214286 22.4242424,65.7658831 22.4242424,48.4274892 L22.4242424,44.1703463 C22.4242424,61.5087403 36.4797879,75.5642857 53.8181818,75.5642857 C71.1565758,75.5642857 85.2121212,61.5087403 85.2121212,44.1703463 Z" id="Neck-Shadow" fill-opacity="0.100000001" fill="#000000" mask="url(#mask-2)"></path>
                            </g>
                            <g id="ðŸ‘”-Clothes" transform="translate(17.378788, 104.832143)">
                                <g id="Shirt" transform="translate(3.006887, 2.268864)">
                                    <mask id="mask-4" fill="white">
                                        <use xlink:href="#path-3"></use>
                                    </mask>
                                    <use id="Clothes" fill="#E6E6E6" xlink:href="#path-3"></use>
                                    <g id="Color/Palette/Gray-01" mask="url(#mask-4)" fill="#E6E6E6">
                                        <g transform="translate(-16.461433, -14.508149)" id="ðŸ–Color">
                                            <rect x="0" y="0" width="142.10422" height="56.0504505"></rect>
                                        </g>
                                    </g>
                                    <g id="Shadowy" opacity="0.599999964" mask="url(#mask-4)" fill="#000000" fill-opacity="0.16">
                                        <g transform="translate(31.190083, -12.379578)" id="Hola-ðŸ‘‹ðŸ¼">
                                            <ellipse cx="21.8636364" cy="14.0106103" rx="21.3967288" ry="13.5408009"></ellipse>
                                        </g>
                                    </g>
                                </g>
                                <g id="Blazer" transform="translate(0.203857, 0.135455)">
                                    <path d="M75.0340389,0.861521699 C96.6342654,3.38914448 113.395317,21.7533969 113.395317,44.0324026 L74.6358469,44.0324026 C76.5640977,37.5456748 77.675792,29.9145025 77.675792,21.747711 C77.675792,14.1606551 76.7163273,7.03587355 75.0340389,0.861521699 Z M39.3264465,44.0324026 L0,44.0324026 C-2.7529547e-15,21.5528215 17.0642056,3.05879921 38.945839,0.797113463 C37.2526538,6.9863041 36.2865014,14.1342593 36.2865014,21.747711 C36.2865014,29.9145025 37.3981957,37.5456748 39.3264465,44.0324026 Z" id="Saco" fill="#3A4C5A"></path>
                                    <path d="M84.479511,31.1448701 L88.9006282,28.0044576 C90.322513,26.994463 92.2320194,27.0109514 93.636251,28.0453494 L96.3860193,30.0709091 L84.479511,31.1448701 Z" id="Pocket-hanky" fill="#E6E6E6"></path>
                                    <path d="M39.1213843,6.10476172e-14 C36.853478,10.3816234 37.7984389,25.0590909 41.9562672,44.0324026 L32.8846419,44.0324026 L24.9469697,24.7011039 L28.3488292,19.8682792 L24.9469697,16.6463961 L35.7195248,0.536980519 C36.86916,0.198273955 38.0031131,0.0192804486 39.1213843,6.10476172e-14 Z" id="Wing" fill="#2F4351"></path>
                                    <path d="M85.6134642,6.10476172e-14 C83.3455579,10.3816234 84.2905188,25.0590909 88.4483471,44.0324026 L79.3767218,44.0324026 L71.4390496,24.7011039 L74.8409091,19.8682792 L71.4390496,16.6463961 L82.2116047,0.536980519 C83.3612399,0.198273955 84.495193,0.0192804486 85.6134642,6.10476172e-14 Z" id="Wing" fill="#2F4351" transform="translate(79.943698, 22.016201) scale(-1, 1) translate(-79.943698, -22.016201) "></path>
                                </g>
                            </g>
                            <g id="Face" transform="translate(42.606061, 43.635714)" fill="#000000">
                                <g id="Mouth/Default" transform="translate(1.121212, 27.671429)" fill-opacity="0.699999988">
                                    <path d="M22.5925926,7.84090909 C22.5925926,11.8826293 26.1328595,15.1590909 30.5,15.1590909 C34.8671405,15.1590909 38.4074074,11.8826293 38.4074074,7.84090909" id="Mouth"></path>
                                </g>
                                <g id="Nose/Default" transform="translate(15.696970, 21.285714)" fill-opacity="0.16">
                                    <path d="M8.85714286,4.33333333 C8.85714286,6.72656725 11.8312513,8.66666667 15.5,8.66666667 C19.1687487,8.66666667 22.1428571,6.72656725 22.1428571,4.33333333" id="Nose"></path>
                                </g>
                                <g id="Eyes/Default-ðŸ˜€" transform="translate(0.000000, 4.257143)" fill-opacity="0.599999964">
                                    <ellipse id="Eye" cx="16.875" cy="11.5" rx="3.375" ry="3.13636364"></ellipse>
                                    <ellipse id="Eye" cx="46.125" cy="11.5" rx="3.375" ry="3.13636364"></ellipse>
                                </g>
                                <g id="Eyebrow/Natural/Default-Natural" fill-opacity="0.599999964">
                                    <path d="M14.6566488,3.36431565 C11.4152966,3.7937514 6.35378381,6.53093176 6.76577336,9.67896434 C6.77931239,9.78199818 6.94103703,9.81360376 7.01115453,9.7273086 C8.41518215,7.99538716 19.2348955,5.42281906 23.1703451,5.94014981 C23.5305229,5.98760943 23.7695977,5.6284747 23.524592,5.40558486 C21.4253073,3.49681599 17.5603176,2.97685345 14.6566488,3.36431565" id="Eyebrow" transform="translate(15.183316, 6.510904) rotate(5.000000) translate(-15.183316, -6.510904) "></path>
                                    <path d="M47.8525172,3.36431565 C44.611165,3.7937514 39.5496522,6.53093176 39.9616417,9.67896434 C39.9751808,9.78199818 40.1369054,9.81360376 40.2070229,9.7273086 C41.6110505,7.99538716 52.4307639,5.42281906 56.3662134,5.94014981 C56.7263913,5.98760943 56.9654661,5.6284747 56.7204604,5.40558486 C54.6211757,3.49681599 50.756186,2.97685345 47.8525172,3.36431565" id="Eyebrow" transform="translate(48.379184, 6.510904) scale(-1, 1) rotate(5.000000) translate(-48.379184, -6.510904) "></path>
                                </g>
                            </g>
                            <g id="Top">
                                <mask id="mask-6" fill="white">
                                    <use xlink:href="#path-5"></use>
                                </mask>
                                <g id="Mask"></g>
                                <g mask="url(#mask-6)">
                                    <g transform="translate(26.909091, 14.900000)">
                                        <g id="Facial-Hair/-Blank" transform="translate(0.000000, 23.414286)"></g>
                                        <g id="Hair" stroke-width="1" fill-rule="evenodd" transform="translate(18.500000, 0.000000)">
                                            <mask id="mask-8" fill="white">
                                                <use xlink:href="#path-7"></use>
                                            </mask>
                                            <use id="Dreads-With-Cut" fill="#2E3257" xlink:href="#path-7"></use>
                                            <g id="Color/Hair/Brown" mask="url(#mask-8)" fill="#724133">
                                                <g transform="translate(-34.757576, -8.514286)" id="Color">
                                                    <rect x="0" y="0" width="126" height="129"></rect>
                                                </g>
                                            </g>
                                        </g>
                                        <g id="Top/_Resources/Prescription-01" transform="translate(11.212121, 30.332143)" fill-rule="evenodd" stroke-width="1">
                                            <g id="Glasses" filter="url(#filter-9)" transform="translate(4.056338, 4.296296)" fill="#D6EAF2">
                                                <path d="M23.450268,3.90703395 C24.6527845,3.91902778 25.2212499,4.13079938 25.4261206,5.45907099 C25.6336959,6.80452778 25.4318678,8.3171821 25.192514,9.64241049 C24.8272289,11.665966 24.2197163,13.6485278 22.8055677,15.1275278 C22.0606296,15.9064105 21.1520653,16.5272253 20.185691,16.9511265 C19.6725001,17.1763241 19.1305732,17.3388673 18.5888154,17.4622068 C18.4304294,17.4981883 17.0783167,17.6954599 17.9076035,17.595213 C15.9723193,17.8291821 13.872733,17.8198735 12.2564183,16.5152315 C10.4651521,15.0693488 9.23846361,12.781392 8.69907225,10.5023858 C8.38348351,9.16892284 7.72035838,5.97963889 8.93200278,4.91344136 C10.3199509,3.69186111 23.450268,3.90703395 23.450268,3.90703395 Z M11.2653648,0.263416667 C8.50687922,0.364021605 6.66591673,0.877429012 5.30535232,3.79640432 C2.81191392,9.14583025 7.07971493,17.1684475 11.8405917,19.3545463 C17.4064141,21.9106636 23.6242053,19.0819105 26.5667702,13.9660957 C28.1251058,11.2574599 28.9128099,7.15503395 28.8620994,4.02983642 C28.7975279,0.0410833333 26.167002,-0.0695462963 23.0750099,0.0181697531 L11.2653648,0.263416667 Z" id="Frame-Stuff"></path>
                                                <path d="M40.4014064,3.90563765 C39.1988899,3.91781049 38.6304245,4.12940309 38.4255538,5.45767469 C38.2179786,6.80313148 38.4198066,8.3157858 38.6589914,9.6410142 C39.0244456,11.6645698 39.6319581,13.6471315 41.0461067,15.1261315 C41.7910449,15.9050142 42.6996091,16.525829 43.6659834,16.9499093 C44.1791743,17.1749278 44.7211012,17.337471 45.2628591,17.4608105 C45.4212451,17.496792 46.7731887,17.6942426 45.944071,17.5938167 C47.8793551,17.8277858 49.9789415,17.8184772 51.5952561,16.5138352 C53.3865223,15.0679525 54.6132108,12.7801747 55.1526022,10.5011685 C55.4681909,9.16752654 56.131147,5.9784216 54.9196716,4.91204506 C53.5317235,3.69046481 40.4014064,3.90563765 40.4014064,3.90563765 Z M52.5861406,0.26202037 C55.3447952,0.362625309 57.1857577,0.876211728 58.5463221,3.79500802 C61.0395915,9.14443395 56.7719595,17.1670512 52.0110828,19.353329 C46.4452604,21.9092673 40.2274691,19.0805142 37.2847352,13.9648784 C35.7265686,11.2560636 34.9388645,7.15363765 34.989406,4.02844012 C35.0541465,0.039687037 37.6846725,-0.0709425926 40.7766646,0.0169524691 L52.5861406,0.26202037 Z" id="Frame-Stuff"></path>
                                                <path d="M6.69141041,2.64582037 C4.96141551,2.74875247 2.98448278,2.77345617 1.36397318,3.5655858 C-0.352197015,4.40443765 -0.617408873,6.30411667 1.54607791,6.56583272 C2.52048121,6.68380185 3.49599685,6.48885741 4.45546311,6.3075179 C5.24124659,6.15893765 6.30860912,6.20709198 7.05117054,5.88898704 C8.43491221,5.29645617 8.34608451,2.54557346 6.69141041,2.64582037" id="Frame-Stuff"></path>
                                                <path d="M57.161241,2.64582037 C58.8912368,2.74875247 60.8681705,2.77345617 62.4886809,3.5655858 C64.204852,4.40443765 64.470064,6.30411667 62.3065761,6.56583272 C61.3321723,6.68380185 60.3566562,6.48885741 59.3971895,6.3075179 C58.6114056,6.15893765 57.5440425,6.20709198 56.8014807,5.88898704 C55.4175794,5.29645617 55.5065661,2.54557346 57.161241,2.64582037" id="Frame-Stuff"></path>
                                                <path d="M37.0695702,3.76604383 C36.0827427,2.53085864 33.511041,1.81767346 31.888641,1.81767346 C30.266072,1.81767346 27.76976,2.53085864 26.7831015,3.76604383 C26.2854618,4.38882778 26.2685583,5.22213025 27.130976,5.61255617 C28.2048567,6.09893272 29.1637934,5.21693889 30.0233375,4.75562407 C31.1227425,4.16559938 32.8117423,4.23040185 33.8293343,4.75562407 C34.6954707,5.20279691 35.647646,6.09893272 36.7216958,5.61255617 C37.5841134,5.22213025 37.5672099,4.38882778 37.0695702,3.76604383" id="Frame-Stuff"></path>
                                            </g>
                                        </g>
                                    </g>
                                </g>
                            </g>
                        </g>
                    </g>
                </g>
            </g>
        </g>
    </g>
</svg>