<svg xmlns="http://www.w3.org/2000/svg" width="22" height="22" viewBox="0 0 22 22">
    <path fill="#9A9A9A" fill-rule="nonzero" d="M7.358 17.714c0 .091-.102.164-.23.164-.147.014-.249-.059-.249-.164 0-.09.102-.163.231-.163.133-.014.248.059.248.163zM5.98 17.51c-.031.09.058.195.19.223.116.045.25 0 .276-.091.026-.091-.058-.196-.191-.237-.115-.032-.244.014-.275.105zm1.96-.078c-.128.032-.217.119-.204.223.014.091.13.15.262.119.129-.032.218-.119.204-.21-.013-.086-.133-.145-.261-.132zM10.86 0C4.705 0 0 4.79 0 11.1c0 5.045 3.096 9.362 7.518 10.881.568.105.767-.254.767-.55 0-.282-.013-1.838-.013-2.793 0 0-3.105.682-3.757-1.356 0 0-.505-1.324-1.233-1.665 0 0-1.015-.714.071-.7 0 0 1.105.09 1.712 1.173.972 1.756 2.6 1.251 3.234.951.102-.728.39-1.233.71-1.533-2.48-.282-4.982-.65-4.982-5.027 0-1.25.338-1.879 1.047-2.68-.115-.295-.492-1.514.116-3.088.927-.296 3.06 1.228 3.06 1.228.887-.255 1.84-.386 2.785-.386.945 0 1.899.131 2.786.386 0 0 2.133-1.528 3.06-1.228.608 1.578.231 2.793.116 3.089.71.805 1.144 1.433 1.144 2.68 0 4.39-2.612 4.74-5.092 5.026.408.36.754 1.042.754 2.11 0 1.534-.013 3.43-.013 3.804 0 .296.204.655.767.55C18.993 20.462 22 16.145 22 11.1 22 4.79 17.01 0 10.858 0zM4.31 15.69c-.057.045-.044.15.031.237.071.072.173.104.231.045.058-.045.044-.15-.031-.237-.071-.072-.173-.104-.23-.045zm-.479-.368c-.03.059.014.131.102.177.071.045.16.032.191-.032.031-.059-.013-.132-.102-.177-.089-.028-.16-.014-.19.032zM5.27 16.94c-.07.06-.044.196.058.282.102.105.23.118.288.046.058-.06.031-.196-.057-.282-.098-.105-.231-.119-.289-.046zm-.505-.669c-.071.046-.071.164 0 .269.07.104.19.15.248.104.071-.059.071-.177 0-.282-.062-.104-.177-.15-.248-.09z"/>
</svg>
