<svg xmlns="http://www.w3.org/2000/svg" xmlns:xlink="http://www.w3.org/1999/xlink" width="267" height="125" viewBox="0 0 267 125">
    <defs>
        <path id="b" d="M14 15.532h111.068a5 5 0 0 0 3.23-1.184l15.63-13.23a3 3 0 0 1 3.797-.065l16.962 13.402a5 5 0 0 0 3.1 1.077H229c7.732 0 14 6.268 14 14V88c0 7.732-6.268 14-14 14H14c-7.732 0-14-6.268-14-14V29.532c0-7.732 6.268-14 14-14z"/>
        <filter id="a" width="115.6%" height="137.4%" x="-7.8%" y="-16.7%" filterUnits="objectBoundingBox">
            <feMorphology in="SourceAlpha" operator="dilate" radius="2" result="shadowSpreadOuter1"/>
            <feOffset dy="2" in="shadowSpreadOuter1" result="shadowOffsetOuter1"/>
            <feGaussianBlur in="shadowOffsetOuter1" result="shadowBlurOuter1" stdDeviation="4"/>
            <feColorMatrix in="shadowBlurOuter1" values="0 0 0 0 0.953895621 0 0 0 0 0.953895621 0 0 0 0 0.953895621 0 0 0 1 0"/>
        </filter>
    </defs>
    <g fill="none" fill-rule="nonzero" transform="translate(12 9)">
        <use fill="#000" filter="url(#a)" xlink:href="#b"/>
        <use fill="#FFF" xlink:href="#b"/>
    </g>
</svg>
